<svg width="69" height="71" viewBox="0 0 69 71" fill="none" xmlns="http://www.w3.org/2000/svg">
<path d="M34.5 35.5C31.3375 35.5 28.6302 34.3413 26.3781 32.024C24.126 29.7066 23 26.9208 23 23.6667C23 20.4125 24.126 17.6267 26.3781 15.3094C28.6302 12.992 31.3375 11.8333 34.5 11.8333C37.6625 11.8333 40.3698 12.992 42.6219 15.3094C44.874 17.6267 46 20.4125 46 23.6667C46 26.9208 44.874 29.7066 42.6219 32.024C40.3698 34.3413 37.6625 35.5 34.5 35.5ZM11.5 59.1667V50.8833C11.5 49.207 11.9193 47.6662 12.7578 46.2609C13.5964 44.8557 14.7104 43.7833 16.1 43.0438C19.0708 41.5153 22.0896 40.3689 25.1562 39.6047C28.2229 38.8405 31.3375 38.4583 34.5 38.4583C37.6625 38.4583 40.7771 38.8405 43.8438 39.6047C46.9104 40.3689 49.9292 41.5153 52.9 43.0438C54.2896 43.7833 55.4036 44.8557 56.2422 46.2609C57.0807 47.6662 57.5 49.207 57.5 50.8833V59.1667H11.5ZM17.25 53.25H51.75V50.8833C51.75 50.341 51.6182 49.8479 51.3547 49.4042C51.0911 48.9604 50.7438 48.6153 50.3125 48.3688C47.725 47.0375 45.1135 46.0391 42.4781 45.3735C39.8427 44.7078 37.1833 44.375 34.5 44.375C31.8167 44.375 29.1573 44.7078 26.5219 45.3735C23.8865 46.0391 21.275 47.0375 18.6875 48.3688C18.2562 48.6153 17.9089 48.9604 17.6453 49.4042C17.3818 49.8479 17.25 50.341 17.25 50.8833V53.25ZM34.5 29.5833C36.0813 29.5833 37.4349 29.004 38.5609 27.8453C39.687 26.6866 40.25 25.2938 40.25 23.6667C40.25 22.0396 39.687 20.6467 38.5609 19.488C37.4349 18.3294 36.0813 17.75 34.5 17.75C32.9187 17.75 31.5651 18.3294 30.4391 19.488C29.313 20.6467 28.75 22.0396 28.75 23.6667C28.75 25.2938 29.313 26.6866 30.4391 27.8453C31.5651 29.004 32.9187 29.5833 34.5 29.5833Z" fill="#1D1B20"/>
</svg>
